<?xml version="1.0" standalone="no"?><!DOCTYPE svg PUBLIC "-//W3C//DTD SVG 1.1//EN" "http://www.w3.org/Graphics/SVG/1.1/DTD/svg11.dtd"><svg t="1741264344275" class="icon" viewBox="0 0 1024 1024" version="1.1" xmlns="http://www.w3.org/2000/svg" p-id="7438" xmlns:xlink="http://www.w3.org/1999/xlink" width="200" height="200"><path d="M352 544h448v-64h-448z m0-256v64h448v-64z m0 448h448v-64h-448z m-128-192h64v-64h-64z m0-192h64v-64h-64z m0 384h64v-64h-64z" fill="#ffffff" p-id="7439"></path><path d="M864 32h-704a128 128 0 0 0-128 128v704a128 128 0 0 0 128 128h704a128 128 0 0 0 128-128v-704a128 128 0 0 0-128-128z m64 832a64 64 0 0 1-64 64h-704a64 64 0 0 1-64-64v-704a64 64 0 0 1 64-64h704a64 64 0 0 1 64 64z" fill="#ffffff" p-id="7440"></path></svg>