<?xml version="1.0" standalone="no"?><!DOCTYPE svg PUBLIC "-//W3C//DTD SVG 1.1//EN" "http://www.w3.org/Graphics/SVG/1.1/DTD/svg11.dtd"><svg t="1737728399253" class="icon" viewBox="0 0 1036 1024" version="1.1" xmlns="http://www.w3.org/2000/svg" p-id="17777" xmlns:xlink="http://www.w3.org/1999/xlink" width="202.34375" height="200"><path d="M817.112902 292.580205a73.136641 73.136641 0 0 1 0 146.273281H219.440276v0.365683l-3.656832 0.21941A219.409922 219.409922 0 0 0 219.440276 877.307646V877.673329h378.226136a218.166599 218.166599 0 0 0 44.284236 74.23369 217.581506 217.581506 0 0 0 49.769484 40.810246 219.117375 219.117375 0 0 0 155.634771 27.023988 218.020325 218.020325 0 0 0 79.060709-32.765215 217.252391 217.252391 0 0 0 47.721657-43.260322 219.775605 219.775605 0 0 0 49.550074-149.930113 219.373353 219.373353 0 0 0-425.728384-63.15349l-0.292547 0.767935H231.873505a73.136641 73.136641 0 0 1 0-146.273281H804.5334v-0.365683a219.921878 219.921878 0 0 0 134.425145-36.604889 217.252391 217.252391 0 0 0 47.721658-43.260323 217.142686 217.142686 0 0 0 33.09433-55.218163 217.874052 217.874052 0 0 0 16.455744-73.209777 220.214425 220.214425 0 0 0-20.843942-104.585396 220.945791 220.945791 0 0 0-43.150618-61.325073 219.409922 219.409922 0 0 0-172.017379-63.628878L804.5334 146.672607 804.5334 146.306924H426.307264a219.88531 219.88531 0 0 0-76.171812-103.122663 219.44649 219.44649 0 1 0 75.879265 250.163879L426.307264 292.580205zM804.5334 731.400048a73.100072 73.100072 0 1 1 0 146.200145A73.100072 73.100072 0 0 1 804.5334 731.400048zM219.440276 146.306924a73.100072 73.100072 0 1 1 0 146.200144A73.100072 73.100072 0 0 1 219.440276 146.306924z" p-id="17778" fill="#ffffff"></path></svg>