<?xml version="1.0" standalone="no"?><!DOCTYPE svg PUBLIC "-//W3C//DTD SVG 1.1//EN" "http://www.w3.org/Graphics/SVG/1.1/DTD/svg11.dtd"><svg t="1741264236004" class="icon" viewBox="0 0 1024 1024" version="1.1" xmlns="http://www.w3.org/2000/svg" p-id="6206" xmlns:xlink="http://www.w3.org/1999/xlink" width="200" height="200"><path d="M781.688 208.645H646.87c-9.305 0-17.234 3.303-23.85 9.878-6.57 6.625-9.877 14.54-9.877 23.839V377.18c0 9.329 3.312 17.278 9.878 23.839 6.615 6.615 14.544 9.897 23.849 9.897h134.818c9.309 0 17.253-3.282 23.824-9.897 6.625-6.56 9.907-14.51 9.907-23.844V242.362c0-9.294-3.282-17.22-9.907-23.84-6.575-6.574-14.515-9.877-23.824-9.877M646.85 141.211h134.818c27.893 0 51.747 9.878 71.502 29.634 19.756 19.755 29.614 43.584 29.614 71.497v134.813c0 27.913-9.858 51.757-29.614 71.512-19.755 19.75-43.61 29.629-71.502 29.629H646.85c-27.933 0-51.752-9.878-71.507-29.629-19.756-19.755-29.634-43.604-29.634-71.512V242.342c0-27.913 9.878-51.742 29.634-71.497 19.76-19.756 43.57-29.634 71.507-29.634m134.838 471.907H646.87c-9.305 0-17.234 3.328-23.85 9.878-6.57 6.635-9.877 14.565-9.877 23.864v134.813c0 9.309 3.312 17.273 9.878 23.829 6.615 6.615 14.544 9.902 23.849 9.902h134.818c9.309 0 17.253-3.287 23.824-9.897 6.625-6.56 9.907-14.525 9.907-23.834V646.86c0-9.3-3.282-17.23-9.907-23.864-6.575-6.55-14.515-9.878-23.824-9.878M646.85 545.714h134.818c27.893 0 51.747 9.878 71.502 29.629 19.756 19.755 29.614 43.57 29.614 71.502v134.813c0 27.888-9.858 51.742-29.614 71.497-19.755 19.756-43.61 29.634-71.502 29.634H646.85c-27.933 0-51.752-9.878-71.507-29.634-19.756-19.755-29.634-43.604-29.634-71.497V646.845c0-27.933 9.878-51.747 29.634-71.502 19.755-19.75 43.57-29.629 71.507-29.629M377.19 208.645H242.357c-9.31 0-17.23 3.312-23.854 9.883-6.55 6.624-9.878 14.54-9.878 23.839v539.31c0 9.31 3.327 17.274 9.878 23.83 6.625 6.615 14.545 9.902 23.854 9.902H377.19c9.309 0 17.254-3.287 23.824-9.897 6.625-6.56 9.897-14.525 9.897-23.834V242.362c0-9.294-3.277-17.22-9.897-23.84-6.575-6.574-14.515-9.877-23.83-9.877m-134.842-67.434h134.833c27.903 0 51.737 9.878 71.487 29.634 19.76 19.755 29.638 43.584 29.638 71.497v539.311c0 27.888-9.877 51.742-29.633 71.497-19.755 19.756-43.59 29.634-71.492 29.634H242.337c-27.923 0-51.757-9.878-71.502-29.634-19.756-19.755-29.624-43.604-29.624-71.497v-539.31c0-27.914 9.868-51.743 29.624-71.498 19.745-19.756 43.58-29.634 71.502-29.634" p-id="6207" fill="#ffffff"></path></svg>