<?xml version="1.0" standalone="no"?><!DOCTYPE svg PUBLIC "-//W3C//DTD SVG 1.1//EN" "http://www.w3.org/Graphics/SVG/1.1/DTD/svg11.dtd"><svg t="1737728272060" class="icon" viewBox="0 0 1024 1024" version="1.1" xmlns="http://www.w3.org/2000/svg" p-id="1713" xmlns:xlink="http://www.w3.org/1999/xlink" width="200" height="200"><path d="M316.0576 62.3104a22.3232 22.3232 0 0 1 30.72 9.984l92.16 191.5904c5.632 11.776 1.024 26.0096-10.4448 32.256a22.3232 22.3232 0 0 1-30.72-10.0352l-92.16-191.5904a24.5248 24.5248 0 0 1 10.4448-32.256zM710.656 58.88a22.3232 22.3232 0 0 0-30.72 10.0352l-92.16 191.5904a24.5248 24.5248 0 0 0 10.3936 32.2048 22.3232 22.3232 0 0 0 30.72-9.984l92.16-191.6416a24.5248 24.5248 0 0 0-10.4448-32.1536z" fill="#ffffff" p-id="1714"></path><path d="M307.2 51.2m-51.2 0a51.2 51.2 0 1 0 102.4 0 51.2 51.2 0 1 0-102.4 0Z" fill="#ffffff" p-id="1715"></path><path d="M716.8 51.2m-51.2 0a51.2 51.2 0 1 0 102.4 0 51.2 51.2 0 1 0-102.4 0Z" fill="#ffffff" p-id="1716"></path><path d="M153.6 460.8v358.4H46.592a46.592 46.592 0 0 1-46.592-46.592V507.392A46.592 46.592 0 0 1 46.592 460.8H153.6z m-51.2 51.2H51.2v256h51.2v-256z" fill="#ffffff" p-id="1717"></path><path d="M977.408 460.8a46.592 46.592 0 0 1 46.592 46.592v265.216a46.592 46.592 0 0 1-46.592 46.592H870.4V460.8h107.008zM972.8 512h-51.2v256h51.2v-256z" fill="#ffffff" p-id="1718"></path><path d="M828.5184 256C879.9232 256 921.6 297.6768 921.6 349.0816v581.8368A93.0816 93.0816 0 0 1 828.5184 1024H195.4816A93.0816 93.0816 0 0 1 102.4 930.9184V349.0816C102.4 297.6768 144.0768 256 195.4816 256h633.0368zM819.2 307.2H204.8a51.2 51.2 0 0 0-51.2 51.2v563.2a51.2 51.2 0 0 0 51.2 51.2h614.4a51.2 51.2 0 0 0 51.2-51.2V358.4a51.2 51.2 0 0 0-51.2-51.2z" fill="#ffffff" p-id="1719"></path><path d="M282.5216 465.8176c39.7824-62.0544 121.856-66.6112 178.8928-33.6896a150.7328 150.7328 0 0 1 74.24 146.432l254.5152 152.9856c11.4176 6.6048 15.36 21.1968 8.448 31.488l-33.28 62.5664c-5.4272 11.1104-20.0192 15.0016-31.4368 8.448l-260.0448-148.48a150.7328 150.7328 0 0 1-163.8912 8.96c-57.0368-32.9216-90.368-98.5088-62.2592-175.36l124.5696 68.4032 33.1776-52.4288zM342.016 460.8l112.9984 64.256-71.4752 113.408-105.3696-58.5216c0 31.3856 16.7424 57.088 50.176 77.1072 53.1968 23.3984 99.4816 15.4112 138.9056-24.0128l255.1296 151.8592c9.1136 5.2736 19.6608 4.3008 25.1392-3.9424 5.5296-8.192 3.3792-21.6576-5.7856-26.9312l-253.5936-152.7808c19.0976-57.0368-6.1952-109.4656-47.104-133.376C400.1792 443.904 353.536 453.5296 342.016 460.8z" fill="#ffffff" p-id="1720"></path></svg>