<?xml version="1.0" standalone="no"?><!DOCTYPE svg PUBLIC "-//W3C//DTD SVG 1.1//EN" "http://www.w3.org/Graphics/SVG/1.1/DTD/svg11.dtd"><svg t="1741244660142" class="icon" viewBox="0 0 1024 1024" version="1.1" xmlns="http://www.w3.org/2000/svg" p-id="3701" xmlns:xlink="http://www.w3.org/1999/xlink" width="200" height="200"><path d="M639.7952 310.0672h254.208v544.2048c0 29.184-23.6544 52.8384-52.8384 52.8384H182.784c-29.184 0-52.8384-23.6544-52.8384-52.8384V310.0672h509.7984z m-451.072 58.7264v479.5904h646.5024V368.7936H188.7232z" p-id="3702" fill="#ffffff"></path><path d="M709.9904 116.8896l8.704 9.3184 174.2336 186.0096-42.8544 40.1408-165.5808-176.7424H331.3664L174.3872 351.8464l-43.8272-39.0656 165.7856-186.0608 8.7552-9.8304zM774.7584 731.3408a29.3376 29.3376 0 0 1 0 58.7264h-234.8032a29.3376 29.3376 0 0 1 0-58.7264h234.8032z" p-id="3703" fill="#ffffff"></path></svg>